<?xml version="1.0" encoding="iso-8859-1"?>
<!-- Generator: Adobe Illustrator 19.0.0, SVG Export Plug-In . SVG Version: 6.00 Build 0)  -->
<svg xmlns="http://www.w3.org/2000/svg" xmlns:xlink="http://www.w3.org/1999/xlink" version="1.1" id="Capa_1" x="0px" y="0px" viewBox="0 0 512.001 512.001" style="enable-background:new 0 0 512.001 512.001;" xml:space="preserve" width="512px" height="512px">
<g>
	<g>
		
			<rect x="169.817" y="251.419" transform="matrix(0.7071 -0.7071 0.7071 0.7071 -112.8188 290.4634)" width="248.788" height="59.993" fill="#FFFFFF"/>
	</g>
</g>
<g>
	<g>
		
			<rect x="106.183" y="187.794" transform="matrix(0.7071 -0.7071 0.7071 0.7071 -86.4656 226.8357)" width="248.798" height="59.993" fill="#FFFFFF"/>
	</g>
</g>
<g>
	<g>
		<polygon points="339.749,66.195 318.536,87.408 424.591,193.463 445.809,172.245   " fill="#FFFFFF"/>
	</g>
</g>
<g>
	<g>
		<path d="M104.112,309.682l-43.25,122.324c-1.934,5.449-0.557,11.514,3.53,15.601c4.209,4.207,10.372,5.414,15.601,3.529    l122.331-43.253L104.112,309.682z" fill="#FFFFFF"/>
	</g>
</g>
<g>
	<g>
		<path d="M498.836,55.584l-42.422-42.422c-17.549-17.549-46.084-17.549-63.633,0L360.96,44.985l106.06,106.049l31.816-31.817    C516.385,101.668,516.385,73.133,498.836,55.584z" fill="#FFFFFF"/>
	</g>
</g>
<g>
	<g>
		<path d="M497,482.001H15c-8.291,0-15,6.709-15,15c0,8.291,6.709,15,15,15h482c8.291,0,15-6.709,15-15    C512,488.71,505.291,482.001,497,482.001z" fill="#FFFFFF"/>
	</g>
</g>
<g>
</g>
<g>
</g>
<g>
</g>
<g>
</g>
<g>
</g>
<g>
</g>
<g>
</g>
<g>
</g>
<g>
</g>
<g>
</g>
<g>
</g>
<g>
</g>
<g>
</g>
<g>
</g>
<g>
</g>
</svg>
