<svg id="Capa_1" enable-background="new 0 0 509.543 509.543" height="512" viewBox="0 0 509.543 509.543" width="512" xmlns="http://www.w3.org/2000/svg"><g><g><g><g><path d="m22.495 389.776h44.999v29.996h-44.999z" fill="#92a2b5"/><path d="m441.995 389.776h45v29.996h-45z" fill="#92a2b5"/><path d="m7.5 120.001h494.543v269.775h-494.543z" fill="#c4e5f9"/><path d="m29.495 367.776v-247.775h-21.995v269.775h494.542v-22z" fill="#83c8f1"/><path d="m7.5 89.771h246.995v30.23h-246.995z" fill="#c8d1da"/><path d="m7.5 89.771h21.995v30.23h-21.995z" fill="#92a2b5"/><path d="m254.495 89.771h246.995v30.23h-246.995z" fill="#faef93"/><path d="m254.495 89.771h22v30.23h-22z" fill="#f6e23d"/><path d="m337.662 195.282v120.019l22.334 22.666h82.333v-142.685l-22.166-22.166h-60.167z" fill="#fff"/><path d="m448.698 241.292-21.213-22.155h-10.84l-26.149 26.148 11.326 11.327-16.498 16.499 20.963 20.963 42.648-42.648z" fill="#c4e5f9"/><path d="m415.825 274.096 16.498-16.498-11.327-11.327 16.588-16.587-10.099-10.547h-10.84l-26.149 26.148 11.327 11.327-16.499 16.499 20.963 20.963 14.758-14.758z" fill="#83c8f1"/><path d="m401.822 256.612-32.289 32.29-37.476-37.476.236-10.134 21.213-22.155h10.841z" fill="#e08ea2"/><path d="m369.533 257.591-26.997-26.997-10.243 10.698-.236 10.134 37.476 37.476 32.29-32.29-15.656-15.656z" fill="#d15573"/><g><path d="m29.495 142.271h15.5v15h-15.5z" fill="#fff"/></g><g><path d="m60.246 142.271h14.249v15h-14.249z" fill="#fff"/></g></g></g></g><g><path d="m465.495 82.271v15h29.048v15.23h-232.548v-15.23h157.5v-15h-419.495v315.005h14.995v29.996h59.999v-29.996h359.501v29.996h60v-29.996h15.048v-315.005zm-450.495 15h231.995v15.23h-231.995zm44.994 315.001h-29.999v-14.996h29.999zm419.501 0h-30v-14.996h30zm15.048-29.996h-479.543v-254.775h479.543z"/><path d="m435.495 82.271h14v15h-14z"/><path d="m434.829 329.955h-71.694l-17.973-18.24v-18.597h-15v24.745l26.695 27.092h92.972v-51.837h-15z"/><path d="m363.069 180.272h53.854l20.143 19.842 10.526-10.687-24.523-24.155h-66.146l-24.524 24.155 10.526 10.687z"/><path d="m385.324 282.205 33.712 33.712 10.607-10.606-12.749-12.749 39.54-39.541v-16.276l-25.771-26.62h-17.125l-23.042 23.042-23.042-23.042h-17.125l-25.771 26.62v16.276l44.976 44.976zm34.427-57.081h4.557l17.127 17.691v3.992l-35.147 35.147-10.357-10.357 16.498-16.498-11.326-11.326zm-80.194 17.691 17.127-17.691h4.557l29.976 29.976-21.684 21.684-29.976-29.976z"/><path d="m29.495 322.787h75v15h-75z"/><path d="m29.495 292.787h75v15h-75z"/><path d="m29.495 352.787h75v15h-75z"/><path d="m82.996 210.355-13.943-8.05-3.078-11.489-21.734 5.824 5.824 21.734 11.487-3.079 13.944 8.05-13.943 8.05-11.488-3.079-5.824 21.734 21.734 5.824 3.078-11.489 13.943-8.05v16.099l-8.41 8.411 15.91 15.91 15.91-15.91-8.41-8.41v-16.099l13.942 8.049 3.079 11.489 21.733-5.824-5.823-21.733-11.489 3.078-13.942-8.05 13.943-8.05 11.488 3.078 5.823-21.733-21.733-5.824-3.079 11.489-13.942 8.05v-16.1l8.41-8.41-15.91-15.91-15.91 15.91 8.41 8.411z"/></g></g></svg>